<svg width="25" height="25" viewBox="0 0 25 25" fill="none" xmlns="http://www.w3.org/2000/svg">
<path d="M7.07835 6.8502C5.69427 8.28839 4.84326 10.2433 4.84326 12.3969C4.84326 16.8152 8.42498 20.3969 12.8433 20.3969C13.9241 20.3969 14.9549 20.1826 15.8954 19.7941C16.0104 19.0436 15.7581 18.3235 15.6549 18.0715C15.4253 17.5119 14.6674 16.5551 13.4022 15.2277C13.0645 14.8727 13.0862 14.6004 13.2069 13.7912L13.2208 13.6998C13.3028 13.1455 13.4404 12.8178 15.3055 12.5217C16.253 12.3715 16.5022 12.7502 16.8476 13.2746C16.8858 13.3327 16.924 13.3897 16.9631 13.4468C17.2912 13.9266 17.5343 14.0363 17.9015 14.2033C18.066 14.2779 18.2713 14.372 18.5464 14.5283C19.1984 14.9009 19.1984 15.3216 19.1984 16.2441V16.3487C19.1984 16.7403 19.1601 17.0841 19.0999 17.3828C20.1911 16.0154 20.8433 14.2823 20.8433 12.3969C20.8433 9.0978 18.8463 6.26511 15.9952 5.04173C15.442 5.41504 14.6831 5.94417 14.4183 6.30691C14.2829 6.49229 14.0915 7.43857 13.469 7.51667C13.3059 7.53714 13.0871 7.5228 12.8553 7.50788C12.2338 7.46749 11.3835 7.41297 11.1113 8.15186C10.9385 8.62011 10.9081 9.89136 11.4672 10.5512C11.5567 10.6566 11.574 10.8516 11.5132 11.0704C11.4333 11.3577 11.2719 11.5325 11.2216 11.5686C11.1252 11.5132 10.9329 11.29 10.8026 11.1381C10.4888 10.7734 10.0973 10.3192 9.59123 10.1787C9.40721 10.1277 9.20492 10.0856 9.00874 10.0443C8.45966 9.92918 7.83769 9.79825 7.69318 9.48993C7.58768 9.26411 7.58814 8.95312 7.58855 8.62455C7.58855 8.20811 7.58855 7.7372 7.38455 7.27947C7.30572 7.10232 7.20015 6.96137 7.07835 6.8502ZM12.8433 22.3969C7.32041 22.3969 2.84326 17.9197 2.84326 12.3969C2.84326 6.87406 7.32041 2.39691 12.8433 2.39691C18.3661 2.39691 22.8433 6.87406 22.8433 12.3969C22.8433 17.9197 18.3661 22.3969 12.8433 22.3969Z" fill="#273C73"/>
</svg>
